<?xml version="1.0" encoding="iso-8859-1"?>
<!-- Generator: Adobe Illustrator 18.0.0, SVG Export Plug-In . SVG Version: 6.00 Build 0)  -->
<!DOCTYPE svg PUBLIC "-//W3C//DTD SVG 1.1//EN" "http://www.w3.org/Graphics/SVG/1.1/DTD/svg11.dtd">
<svg version="1.1" id="Capa_1" xmlns="http://www.w3.org/2000/svg" xmlns:xlink="http://www.w3.org/1999/xlink" x="0px" y="0px"
	 viewBox="0 0 236.861 236.861" style="enable-background:new 0 0 236.861 236.861;" xml:space="preserve">
<path d="M118.43,0C53.127,0,0,53.128,0,118.43s53.127,118.43,118.43,118.43s118.431-53.127,118.431-118.43S183.733,0,118.43,0z
	 M118.43,190c-39.464,0-71.57-32.106-71.57-71.57s32.106-71.57,71.57-71.57c39.464,0,71.569,32.106,71.569,71.57
	S157.894,190,118.43,190z M153.096,118.43c0,19.145-15.521,34.667-34.666,34.667c-19.146,0-34.666-15.521-34.666-34.667
	s15.52-34.667,34.666-34.667C137.576,83.764,153.096,99.285,153.096,118.43z"/>
<g>
</g>
<g>
</g>
<g>
</g>
<g>
</g>
<g>
</g>
<g>
</g>
<g>
</g>
<g>
</g>
<g>
</g>
<g>
</g>
<g>
</g>
<g>
</g>
<g>
</g>
<g>
</g>
<g>
</g>
</svg>
